<?xml version="1.0" encoding="UTF-8" standalone="no"?>
<!-- Created with Inkscape (http://www.inkscape.org/) -->

<svg
   xmlns:dc="http://purl.org/dc/elements/1.1/"
   xmlns:cc="http://creativecommons.org/ns#"
   xmlns:rdf="http://www.w3.org/1999/02/22-rdf-syntax-ns#"
   xmlns:svg="http://www.w3.org/2000/svg"
   xmlns="http://www.w3.org/2000/svg"
   xmlns:sodipodi="http://sodipodi.sourceforge.net/DTD/sodipodi-0.dtd"
   xmlns:inkscape="http://www.inkscape.org/namespaces/inkscape"
   width="210mm"
   height="297mm"
   viewBox="0 0 210 297"
   version="1.1"
   id="svg8"
   inkscape:version="0.92.3 (2405546, 2018-03-11)"
   sodipodi:docname="logo.svg">
  <defs
     id="defs2" />
  <sodipodi:namedview
     id="base"
     pagecolor="#ffffff"
     bordercolor="#666666"
     borderopacity="1.0"
     inkscape:pageopacity="0.0"
     inkscape:pageshadow="2"
     inkscape:zoom="0.35"
     inkscape:cx="400"
     inkscape:cy="560"
     inkscape:document-units="mm"
     inkscape:current-layer="layer1"
     showgrid="false"
     inkscape:window-width="1366"
     inkscape:window-height="705"
     inkscape:window-x="-8"
     inkscape:window-y="-8"
     inkscape:window-maximized="1" />
  <metadata
     id="metadata5">
    <rdf:RDF>
      <cc:Work
         rdf:about="">
        <dc:format>image/svg+xml</dc:format>
        <dc:type
           rdf:resource="http://purl.org/dc/dcmitype/StillImage" />
        <dc:title></dc:title>
      </cc:Work>
    </rdf:RDF>
  </metadata>
  <g
     inkscape:label="Capa 1"
     inkscape:groupmode="layer"
     id="layer1">
    <text
       xml:space="preserve"
       style="font-style:normal;font-weight:normal;font-size:10.58333302px;line-height:1.25;font-family:sans-serif;letter-spacing:0px;word-spacing:0px;fill:#000000;fill-opacity:1;stroke:none;stroke-width:0.26458332"
       x="37.041668"
       y="103.47618"
       id="text22"><tspan
         sodipodi:role="line"
         id="tspan20"
         x="37.041668"
         y="113.13168"
         style="stroke-width:0.26458332" /></text>
    <g
       id="g59">
      <ellipse
         style="stroke-width:0.26458332;fill:#0000ff"
         ry="29.482143"
         rx="30.994047"
         cy="111.79166"
         cx="43.089287"
         id="path10" />
      <path
         inkscape:connector-curvature="0"
         d="m 40.329895,94.91941 c -1.702232,2.401707 -3.188981,4.951277 -4.817534,7.40737 -1.198134,1.7504 -1.996326,3.73013 -3.358298,5.36596 -1.179909,1.05958 -2.059413,2.38002 -3.039422,3.61437 -0.909656,1.24002 -1.437388,2.76377 -1.084127,4.28439 1.116078,1.84411 3.281079,2.7531 5.05034,3.86738 1.624126,1.43659 3.636446,2.20779 5.498332,3.24572 2.109791,1.15819 4.421571,1.91371 6.455863,3.20525 1.404622,1.38537 2.58523,2.92608 4.105084,4.20443 0,0 -9.414626,5.86185 -9.414626,5.86185 v 0 c -1.429703,-1.27498 -2.647992,-2.74254 -4.059335,-4.02098 -2.033792,-1.21505 -4.275932,-2.03871 -6.356938,-3.16926 -1.959636,-0.93478 -3.877096,-1.91297 -5.553072,-3.31997 -2.016259,-1.25972 -4.370804,-2.34251 -5.53329,-4.52654 -0.105999,-0.32545 -0.257247,-0.63951 -0.317998,-0.97636 -0.252823,-1.40185 0.337058,-2.9972 0.938559,-4.22395 0.912383,-1.31122 1.915108,-2.59512 2.982567,-3.77337 1.692641,-1.37028 2.374921,-3.44205 3.559501,-5.2158 1.655974,-2.40371 3.253784,-4.83719 4.620728,-7.419825 0,0 10.323666,-4.410665 10.323666,-4.410665 z"
         id="path32"
         style="fill:#0000ff;stroke-width:0.26458332" />
      <path
         inkscape:connector-curvature="0"
         d="m 30.179573,99.486597 c 3.579334,4.165403 7.341584,8.146633 11.3049,11.947193 3.619619,3.23623 7.32319,6.37346 11.136823,9.37786 0,0 -9.085183,5.69597 -9.085183,5.69597 v 0 c -3.727318,-3.13398 -7.424312,-6.3046 -11.099117,-9.49993 -4.018307,-3.81065 -7.817087,-7.83855 -11.819463,-11.66147 0,0 9.56204,-5.859623 9.56204,-5.859623 z"
         id="path34"
         style="fill:#0000ff;stroke-width:0.26458332" />
      <rect
         y="107.69274"
         x="32.154064"
         height="30.130405"
         width="124.91319"
         id="rect42"
         style="fill:#0000ff;stroke-width:0.26458332" />
      <text
         id="text40"
         y="132.63081"
         x="39.983139"
         style="font-style:normal;font-weight:normal;font-size:22.57777786px;line-height:1.25;font-family:sans-serif;letter-spacing:0px;word-spacing:0px;fill:#f9f9f9;fill-opacity:1;stroke:none;stroke-width:0.26458332"
         xml:space="preserve"><tspan
           style="fill:#f9f9f9;stroke-width:0.26458332"
           y="132.63081"
           x="39.983139"
           id="tspan38"
           sodipodi:role="line">PuntoPixel</tspan></text>
      <text
         id="text49"
         y="108.4015"
         x="19.574085"
         style="font-style:normal;font-weight:normal;font-size:22.57777786px;line-height:1.25;font-family:sans-serif;letter-spacing:0px;word-spacing:0px;fill:#ffffff;fill-opacity:1;stroke:none;stroke-width:0.26458332"
         xml:space="preserve"><tspan
           style="fill:#ffffff;stroke-width:0.26458332"
           y="108.4015"
           x="19.574085"
           id="tspan47"
           sodipodi:role="line">&lt;/&gt;</tspan></text>
    </g>
  </g>
</svg>
